<svg xmlns="http://www.w3.org/2000/svg" version="1.1" width="1602" height="787" viewBox="0 0 1602 787">
  <g id="shapes">
    <path
       id="haus"
       style="fill:#a05a2c"
       d="m 409.61604,316.94881 -5.37201,41.6331 48.34812,5.37201 4.02901,-41.6331 z" />
    <path
       id="wintergarten"
       style="fill:#f9f9f9"
       d="m 428.29072,339.02391 -3.79859,22.79153 24.69082,5.69788 2.84894,-23.74117 z" />
    <path
       id="terrasse"
       style="fill:#666666"
       d="m 403.5999,320.98063 -49.38164,-9.49647 c 0,0 -7.59717,55.07951 -3.79858,51.28093 3.79858,-3.79859 44.6334,-0.94965 44.6334,-0.94965 z" />
    <path
       id="geraeteschuppen"
       style="fill:#008000"
       d="m 625.81725,362.76509 1.8993,18.04329 h 36.08658 l -1.8993,-22.79153 z" />
    <path
       id="offener-schuppen"
       style="fill:#ffdd55"
       d="m 800.10968,335.96925 5.5577,28.4894 62.98728,-0.94964 -1.85255,-28.48941 z" />
    <path
       id="holzschuppen"
       style="fill:#800000"
       d="m 678.73773,286.55021 -1.89929,25.64046 79.77033,2.84894 -0.94964,-28.4894 z" />
    <path
       id="baum-wassertank"
       style="fill:#000000"
       d="m 439.68648,286.79334 0.94964,19.94258 24.69082,1.8993 3.79859,-21.84188 z" />
    <circle
       id="teich"
       style="fill:#0000ff"
       cx="696.09113"
       cy="477.67236"
       r="12.345408" />
    <rect
       id="baumhaus"
       style="fill:#808000"
       width="43.683754"
       height="38.93552"
       x="272.54865"
       y="433.98859" />
    <rect
       id="klo"
       style="fill:#550000"
       width="24.690817"
       height="21.841877"
       x="640.06195"
       y="306.73593" />
    <ellipse
       id="pool"
       style="fill:#0000ff"
       cx="349.99161"
       cy="556.93982"
       rx="19.942583"
       ry="18.992937" />
    <rect
       id="brunnen"
       style="fill:#0000ff"
       width="18.992937"
       height="16.143995"
       x="487.16882"
       y="329.52744" />
    <rect
       id="solaranlage"
       style="fill:#ff6600"
       width="27.539759"
       height="12.345408"
       x="641.96124"
       y="356.11755" />
    <rect
       id="weinberg"
       style="fill:#800080"
       width="54.129868"
       height="30.388699"
       x="697.99042"
       y="367.51331" />
    <rect
       id="werkstatt"
       style="fill:#0000ff"
       width="23.741169"
       height="13.295055"
       x="755.59265"
       y="324.03317"
       ry="1.4244702" />
    <rect
       id="wasserbehaelter-mauer"
       style="fill:#0000ff"
       width="24.690817"
       height="7.5971742"
       x="469.12552"
       y="323.82956"
       ry="1.4244702" />
    <rect
       id="zufahrt"
       style="fill:#008000"
       width="367.83981"
       height="21.841875"
       x="863.12726"
       y="310.81976"
       ry="1.4244702" />
    <ellipse
       id="eiche-1"
       style="fill:#008000"
       cx="1015.3585"
       cy="280.52588"
       rx="18.398636"
       ry="21.303684" />
    <ellipse
       id="eiche-2"
       style="fill:#008000"
       cx="1067.8307"
       cy="288.95453"
       rx="20.884153"
       ry="20.54179" />
    <path
       id="rechter-teil"
       style="fill:#008000"
       d="m 1458.4671,2.7389055 10.9556,256.0876445 112.2951,-35.60576 c 0,0 124.603,-61.67162 146.5315,-69.84209 172.2727,-64.188048 193.7582,-200.34271 -30.128,-147.9008893 z" />
    <path
       id="unterer-eingang"
       style="fill:#800000"
       d="m 371.12167,624.47042 -32.86686,17.80288 6.84726,17.80289 c 0,0 30.12796,-10.95562 30.12796,-16.43343 0,-5.47781 -4.10836,-19.17234 -4.10836,-19.17234 z" />
    <path
       id="terrassen-beet"
       style="fill:#008000"
       d="m 348.60574,308.90342 c -2.42088,-0.96835 -40.1865,-9.19932 -40.1865,-9.19932 l 3.8734,37.76562 c 0,0 30.98718,6.29427 31.47135,1.45253 0.48418,-4.84175 4.84175,-30.01883 4.84175,-30.01883 z" />
    <path
       id="agrar-zukauf"
       style="fill:#000000"
       d="m 248.82545,2.6700869 c 0,6.7784451 -1.41221,171.6327831 -1.41221,171.6327831 l 68.7528,15.49359 81.34134,46.96494 186.40723,7.74679 171.39782,17.91446 714.11027,-9.07391 -5.4778,-254.7181927 z" />
    <rect
       id="kompost"
       style="fill:#008000"
       width="53.259209"
       height="49.385815"
       x="833.26453"
       y="412.03262"
       ry="1.4244702" />
    <rect
       id="oberer-kompost"
       style="fill:#008000"
       width="53.743385"
       height="22.272034"
       x="800.82483"
       y="283.24216"
       ry="1.4244702" />
    <rect
       id="hecke-mittig"
       style="fill:#008000"
       width="92.961533"
       height="26.14543"
       x="543.24396"
       y="415.90601"
       ry="1.4244702" />
    <path
       id="obere-hecke"
       style="fill:#008000"
       d="m 410.25568,245.13203 c 0.37671,2.65411 -5.27384,22.55996 -0.3767,22.55996 4.89714,0 42.19076,0.88471 42.19076,0.88471 0,0 80.6145,12.38586 82.12131,11.50116 1.50682,-0.88471 116.12867,6.84726 111.60823,1.53903 -4.52043,-5.30823 5.16978,-26.75311 1.40275,-26.31076 -3.76703,0.44235 -119.41494,0.88471 -119.41494,0.88471 z" />
  </g>
</svg>
