<svg xmlns="http://www.w3.org/2000/svg" version="1.1" width="1602" height="787" viewBox="0 0 1602 787">
  <g id="shapes">
    <path style="fill:#a05a2c" d="m 409.89736,317.37078 -5.37201,41.6331 48.34812,5.37201 4.02901,-41.6331 z" id="haus" />
    <path style="fill:#f9f9f9" d="m 428.29072,339.02391 -3.79859,22.79153 24.69082,5.69788 2.84894,-23.74117 z" id="wintergarten" />
    <path style="fill:#666666" d="m 404.69113,317.70693 -49.38164,-9.49647 c 0,0 -7.59717,55.07951 -3.79858,51.28093 3.79858,-3.79859 44.6334,-0.94965 44.6334,-0.94965 z" id="terrasse" />
    <path style="fill:#008000" d="m 625.81725,362.76509 1.8993,18.04329 h 36.08658 l -1.8993,-22.79153 z" id="geraeteschuppen" />
    <path style="fill:#ffdd55;stroke-width:1.39671" d="m 782.48806,340.9033 5.5577,28.4894 62.98728,-0.94964 -1.85255,-28.48941 z" id="offener-schuppen" />
    <path style="fill:#800000" d="m 678.73773,286.55021 -1.89929,25.64046 79.77033,2.84894 -0.94964,-28.4894 z" id="holzschuppen" />
    <path style="fill:#000000" d="m 439.68648,286.79334 0.94964,19.94258 24.69082,1.8993 3.79859,-21.84188 z" id="baum-wassertank" />
    <circle style="fill:#0000ff" id="teich" cx="696.09113" cy="477.67236" r="12.345408" />
    <rect style="fill:#808000" id="baumhaus" width="43.683754" height="38.93552" x="272.54865" y="433.98859" />
    <rect style="fill:#550000" id="klo" width="24.690817" height="21.841877" x="640.06195" y="306.73593" />
    <ellipse style="fill:#0000ff" id="pool" ry="18.992937" rx="19.942583" cy="556.93982" cx="349.99161" />
    <rect style="fill:#0000ff;stroke-width:0.381398" id="brunnen" width="7.2438631" height="6.1572833" x="494.41684" y="334.59113" />
    <rect style="fill:#ff6600" id="solaranlage" width="27.539759" height="12.345408" x="641.96124" y="356.11755" />
    <rect style="fill:#800080" id="weinberg" width="54.129868" height="30.388699" x="809.35907" y="372.44736" />
    <rect style="fill:#0000ff" id="werkstatt" width="23.741169" height="13.295055" x="747.48669" y="322.62344" ry="1.4244702" />
    <rect style="fill:#0000ff;stroke-width:0.779053" id="wasserbehaelter-mauer" width="14.98542" height="7.5971742" x="481.22208" y="315.10876" ry="1.4244702" />
    <rect style="fill:#008000;stroke-width:1.22292" id="zufahrt" width="367.83981" height="21.841875" x="863.12726" y="310.81976" ry="1.4244702" />
    <ellipse style="fill:#008000" id="eiche-1" cx="1015.3585" cy="280.52588" rx="18.398636" ry="21.303684" />
    <ellipse style="fill:#008000" id="eiche-2" cx="1067.8307" cy="288.95453" rx="20.884153" ry="20.54179" />
    <path style="fill:#008000" d="m 1458.4671,2.7389055 10.9556,256.0876445 112.2951,-35.60576 c 0,0 124.603,-61.67162 146.5315,-69.84209 172.2727,-64.188048 193.7582,-200.34271 -30.128,-147.9008893 z" id="rechter-teil" />
    <path style="fill:#800000" d="m 371.12167,624.47042 -32.86686,17.80288 6.84726,17.80289 c 0,0 30.12796,-10.95562 30.12796,-16.43343 0,-5.47781 -4.10836,-19.17234 -4.10836,-19.17234 z" id="unterer-eingang" />
    <path style="fill:#008000" d="m 348.60574,308.90342 c -2.42088,-0.96835 -40.1865,-9.19932 -40.1865,-9.19932 l 3.8734,37.76562 c 0,0 30.98718,6.29427 31.47135,1.45253 0.48418,-4.84175 4.84175,-30.01883 4.84175,-30.01883 z" id="terrassen-beet" />
    <path style="fill:#000000" d="m 248.82545,2.6700869 c 0,6.7784451 -1.41221,171.6327831 -1.41221,171.6327831 l 68.7528,15.49359 81.34134,46.96494 186.40723,7.74679 171.39782,17.91446 714.11027,-9.07391 -5.4778,-254.7181927 z" id="agrar-zukauf" />
    <rect style="fill:#008000" id="kompost" width="53.259209" height="49.385815" x="833.26453" y="412.03262" ry="1.4244702" />
    <rect style="fill:#008000" id="oberer-kompost" width="53.743385" height="22.272034" x="800.82483" y="283.24216" ry="1.4244702" />
    <rect style="fill:#008000" id="hecke-mittig" width="92.961533" height="26.14543" x="543.24396" y="415.90601" ry="1.4244702" />
    <path style="fill:#008000;stroke-width:0.596165" d="m 410.25568,245.13203 c 0.37671,2.65411 -5.27384,22.55996 -0.3767,22.55996 4.89714,0 42.19076,0.88471 42.19076,0.88471 0,0 80.6145,12.38586 82.12131,11.50116 1.50682,-0.88471 116.12867,6.84726 111.60823,1.53903 -4.52043,-5.30823 5.16978,-26.75311 1.40275,-26.31076 -3.76703,0.44235 -119.41494,0.88471 -119.41494,0.88471 z" id="obere-hecke" />
    <rect style="fill:#0000ff" id="tonne-geraeteschuppen" width="10.220541" height="9.8681087" x="662.92542" y="371.46381" />
    <rect style="fill:#0000ff" id="tonne-schuppen" width="10.572973" height="9.8681087" x="790.8584" y="366.52972" />
    <rect style="fill:#0000ff" id="tonne-werkstatt" width="7.4010811" height="7.0486488" x="740.10809" y="330.58163" />
    <rect style="fill:#0000ff;stroke-width:3.16667" id="tonne-holzschuppen" width="8.9282885" height="6.6962166" x="667.03711" y="301.32974" />
    <rect style="fill:#0000ff" id="unterirdischer-wasserbehaelter" width="49.923862" height="11.730743" x="646.2821" y="365.83551" ry="1.4244702" />
    <rect style="fill:#ff6600" id="solaranlage-speicher" width="49.383518" height="13.889115" x="794.18732" y="342.98398" ry="1.4244702" />
    <rect style="fill:#800000" id="unterer-kompost" width="49.294979" height="29.355436" x="321.80206" y="503.47345" ry="1.4244702" />
  </g>
</svg>
