<?xml version="1.0" encoding="UTF-8" standalone="no"?>
<svg
   version="1.1"
   id="svg1"
   width="1602"
   height="787"
   viewBox="0 0 1602 787"
   xmlns:inkscape="http://www.inkscape.org/namespaces/inkscape"
   xmlns="http://www.w3.org/2000/svg">
  <g
     inkscape:groupmode="layer"
     inkscape:label="Bereiche"
     id="g1">
    <path
       style="fill:#a05a2c"
       d="m 409.61604,316.94881 -5.37201,41.6331 48.34812,5.37201 4.02901,-41.6331 z"
       id="haus"
       inkscape:label="Haus" />
    <path
       style="fill:#f9f9f9"
       d="m 428.29072,339.02391 -3.79859,22.79153 24.69082,5.69788 2.84894,-23.74117 z"
       id="wintergarten"
       inkscape:label="Wintergarten" />
    <path
       style="fill:#666666"
       d="m 403.5999,320.98063 -49.38164,-9.49647 c 0,0 -7.59717,55.07951 -3.79858,51.28093 3.79858,-3.79859 44.6334,-0.94965 44.6334,-0.94965 z"
       id="terasse"
       inkscape:label="Terasse" />
    <path
       style="fill:#008000"
       d="m 625.81725,362.76509 1.8993,18.04329 h 36.08658 l -1.8993,-22.79153 z"
       id="geraeteschuppen"
       inkscape:label="Geraeteschuppen" />
    <path
       style="fill:#ffdd55"
       d="m 749.27134,346.62109 2.84894,28.4894 32.28799,-0.94964 -0.94964,-28.48941 z"
       id="offener-schuppen"
       inkscape:label="Offener Schuppen" />
    <path
       style="fill:#800000"
       d="m 667.60171,299.13875 -1.89929,25.64046 79.77033,2.84894 -0.94964,-28.4894 z"
       id="holzschuppen"
       inkscape:label="Holzschuppen" />
    <path
       style="fill:#000000"
       d="m 439.68648,286.79334 0.94964,19.94258 24.69082,1.8993 3.79859,-21.84188 z"
       id="baum-wassertank"
       inkscape:label="Baum-Wassertank" />
    <circle
       style="fill:#0000ff"
       id="teich"
       cx="696.09113"
       cy="477.67236"
       r="12.345408"
       inkscape:label="Teich" />
    <rect
       style="fill:#808000"
       id="baumhaus"
       width="43.683754"
       height="38.93552"
       x="272.54865"
       y="433.98859"
       inkscape:label="Baumhaus" />
    <rect
       style="fill:#550000"
       id="klo"
       width="24.690817"
       height="21.841877"
       x="640.06195"
       y="306.73593"
       inkscape:label="Klo" />
    <ellipse
       style="fill:#0000ff"
       id="pool"
       inkscape:label="Pool"
       ry="18.992937"
       rx="19.942583"
       cy="558.39233"
       cx="347.57074" />
    <rect
       style="fill:#0000ff"
       id="brunnen"
       width="18.992937"
       height="16.143995"
       x="487.16882"
       y="329.52744"
       inkscape:label="Brunnen" />
    <rect
       style="fill:#ff6600"
       id="solaranlage"
       width="27.539759"
       height="12.345408"
       x="641.96124"
       y="356.11755"
       inkscape:label="Solaranlage" />
    <rect
       style="fill:#800080"
       id="weinberg"
       width="54.129868"
       height="30.388699"
       x="697.99042"
       y="367.51331"
       inkscape:label="Weinberg" />
    <rect
       style="fill:#0000ff"
       id="werkstatt"
       width="23.741169"
       height="13.295055"
       x="649.55841"
       y="338.07425"
       ry="1.4244702"
       inkscape:label="Werkstatt" />
    <rect
       style="fill:#0000ff"
       id="wasserbehaelter-mauer"
       width="24.690817"
       height="7.5971742"
       x="469.12552"
       y="323.82956"
       ry="1.4244702"
       inkscape:label="Wasserbehaelter Mauer" />
    <rect
       style="fill:#008000"
       id="zufahrt"
       width="245.95851"
       height="21.841875"
       x="801.50189"
       y="323.82956"
       ry="1.4244702"
       inkscape:label="Zufahrt" />
  </g>
</svg>
